<?xml version="1.0" encoding="utf-8"?>
<!-- Generator: Adobe Illustrator 18.1.1, SVG Export Plug-In . SVG Version: 6.00 Build 0)  -->
<svg version="1.1" xmlns="http://www.w3.org/2000/svg" xmlns:xlink="http://www.w3.org/1999/xlink" x="0px" y="0px"
	 viewBox="0 0 50 50" enable-background="new 0 0 50 50" xml:space="preserve">
<g id="Calque_1">
</g>
<g id="Airplane_Flight">
</g>
<g id="Calendar">
	<g>
		<g>
			<path d="M18.4,27.5c0-0.6-0.5-1.1-1.1-1.1h-3.9c-0.6,0-1.1,0.5-1.1,1.1v3.9c0,0.6,0.5,1.1,1.1,1.1h3.9c0.6,0,1.1-0.5,1.1-1.1
				L18.4,27.5L18.4,27.5z"/>
			<path d="M28,27.5c0-0.6-0.5-1.1-1.1-1.1h-3.9c-0.6,0-1.1,0.5-1.1,1.1v3.9c0,0.6,0.5,1.1,1.1,1.1h3.9c0.6,0,1.1-0.5,1.1-1.1V27.5z
				"/>
			<path d="M37.7,27.5c0-0.6-0.5-1.1-1.1-1.1h-3.9c-0.6,0-1.1,0.5-1.1,1.1v3.9c0,0.6,0.5,1.1,1.1,1.1h3.9c0.6,0,1.1-0.5,1.1-1.1
				V27.5z"/>
			<path d="M18.4,37.1c0-0.6-0.5-1.1-1.1-1.1h-3.9c-0.6,0-1.1,0.5-1.1,1.1V41c0,0.6,0.5,1.1,1.1,1.1h3.9c0.6,0,1.1-0.5,1.1-1.1
				L18.4,37.1L18.4,37.1z"/>
			<path d="M28,37.1c0-0.6-0.5-1.1-1.1-1.1h-3.9c-0.6,0-1.1,0.5-1.1,1.1V41c0,0.6,0.5,1.1,1.1,1.1h3.9c0.6,0,1.1-0.5,1.1-1.1V37.1z"
				/>
			<path d="M37.7,37.1c0-0.6-0.5-1.1-1.1-1.1h-3.9c-0.6,0-1.1,0.5-1.1,1.1V41c0,0.6,0.5,1.1,1.1,1.1h3.9c0.6,0,1.1-0.5,1.1-1.1
				L37.7,37.1L37.7,37.1z"/>
			<path d="M44.6,6.1V12c0,2.7-2.2,4.8-4.8,4.8h-3c-2.7,0-4.8-2.1-4.8-4.8V6.1H18.2V12c0,2.7-2.2,4.8-4.8,4.8h-3
				c-2.7,0-4.8-2.1-4.8-4.8V6.1c-2.3,0.1-4.2,2-4.2,4.4v34.5c0,2.4,2,4.4,4.4,4.4h38.9c2.4,0,4.4-2,4.4-4.4V10.4
				C48.8,8.1,46.9,6.2,44.6,6.1z M43.1,42.8c0,1-0.8,1.9-1.9,1.9H8.7c-1,0-1.9-0.8-1.9-1.9V25c0-1,0.8-1.9,1.9-1.9h32.6
				c1,0,1.9,0.8,1.9,1.9L43.1,42.8L43.1,42.8z"/>
			<path d="M10.3,13.6h3c0.9,0,1.7-0.7,1.7-1.7V2.3c0-0.9-0.7-1.7-1.7-1.7h-3c-0.9,0-1.7,0.7-1.7,1.7V12
				C8.6,12.9,9.3,13.6,10.3,13.6z"/>
			<path d="M36.7,13.6h3c0.9,0,1.7-0.7,1.7-1.7V2.3c0-0.9-0.7-1.7-1.7-1.7h-3c-0.9,0-1.7,0.7-1.7,1.7V12
				C35,12.9,35.7,13.6,36.7,13.6z"/>
		</g>
	</g>
</g>
</svg>
